PathFileType	4	(X/Y/Z)	./resultDataOpenSim/trcMotMarkerGrf/sub09/qtm-02-02.trc
DataRate	CameraRate	NumFrames	NumMarkers	Units	OrigDataRate	OrigDataStartFrame	OrigNumFrames
250.000000	250.000000	12	24	m	250.000000	182	484
Frame#	Time	L.Toe.Tip			R.Toe.Tip			L.Ankle.Lat			R.Ankle.Lat			L.Ankle.Med			R.Ankle.Med			L.Heel			R.Heel			L.Knee.Lat			R.Knee.Lat			L.Knee.Med			R.Knee.Med			L.Thigh.Upper			R.Thigh.Upper			L.ASIS			R.ASIS			V.Sacral			L.Acromium			R.Acromium			C7			L.Elbow			R.Elbow			L.Wrist.Lat			R.Wrist.Lat
		X1	Y1	Z1	X2	Y2	Z2	X3	Y3	Z3	X4	Y4	Z4	X5	Y5	Z5	X6	Y6	Z6	X7	Y7	Z7	X8	Y8	Z8	X9	Y9	Z9	X10	Y10	Z10	X11	Y11	Z11	X12	Y12	Z12	X13	Y13	Z13	X14	Y14	Z14	X15	Y15	Z15	X16	Y16	Z16	X17	Y17	Z17	X18	Y18	Z18	X19	Y19	Z19	X20	Y20	Z20	X21	Y21	Z21	X22	Y22	Z22	X23	Y23	Z23	X24	Y24	Z24

182	0.724	0.13825391	0.01532902	-0.022152587	-0.6161379	0.054177081	0.067395227	-0.0069142253	0.047931713	-0.075092688	-0.6871005	0.18517694	0.10669729	0.0054466664	0.068225475	0.021630094	-0.64011997	0.19129243	0.020030701	-0.082674249	0.012956051	-0.036362357	-0.73653468	0.21904868	0.046196826	0.01767962	0.45979303	-0.1224548	-0.30302767	0.42423042	0.17878984	0.011410538	0.46248947	0.0028960715	-0.29582275	0.40048698	0.04774781	-0.19538962	0.82610912	-0.17130715	-0.24537757	0.81313761	0.20065654	-0.13394576	0.91474808	-0.10239898	-0.13880867	0.89894295	0.13801382	-0.30638175	0.95487076	0.0097245556	-0.16088606	1.3561622	-0.15752185	-0.18255572	1.3677466	0.17402128	-0.23654643	1.4125285	0.0071447505	-0.31970906	1.0267814	-0.21187946	-0.30759668	1.0212722	0.2568766	-0.22059143	0.78759336	-0.26480261	-0.1358559	0.80682218	0.26522868
183	0.728	0.13831888	0.015224478	-0.021933827	-0.6124195	0.056087969	0.068080183	-0.0066486206	0.047791951	-0.074969778	-0.67798168	0.19049278	0.10750581	0.0056403932	0.067998401	0.021828046	-0.63066885	0.19446635	0.021251921	-0.082652858	0.012983388	-0.036344626	-0.72639383	0.22565789	0.047116381	0.022167502	0.45906267	-0.1225392	-0.29203658	0.42332485	0.17952371	0.01584432	0.46155282	0.002788124	-0.2829998	0.39863179	0.048030189	-0.18881826	0.8264706	-0.17158668	-0.23863019	0.81261128	0.20013679	-0.12744898	0.91521067	-0.1028255	-0.13272154	0.89898528	0.13743647	-0.30027314	0.95525885	0.0088741917	-0.15385407	1.3563786	-0.15753046	-0.17578113	1.3680476	0.17395179	-0.22972595	1.412898	0.0069132971	-0.31234827	1.0268936	-0.21243383	-0.30187333	1.0220004	0.25669023	-0.21234097	0.78789387	-0.26492859	-0.13094116	0.80682717	0.26508823
184	0.732	0.1383729	0.015146742	-0.021803278	-0.60826513	0.058054378	0.068724937	-0.0063625171	0.047643482	-0.074921054	-0.66833642	0.19565251	0.10831827	0.0058625459	0.067814028	0.021953034	-0.62097462	0.19770502	0.022365759	-0.082613128	0.01302084	-0.036367305	-0.71594053	0.23206778	0.048102002	0.026648114	0.45838239	-0.12253643	-0.28093523	0.42259083	0.18015234	0.020080358	0.46068656	0.0027842816	-0.27021523	0.39713705	0.048480168	-0.18227161	0.82686638	-0.17187229	-0.23205364	0.81227454	0.19961735	-0.12096059	0.91567458	-0.10313305	-0.12674958	0.89916834	0.13696845	-0.29401582	0.95586314	0.0083567285	-0.14688066	1.3566567	-0.15754244	-0.16911546	1.3683832	0.17388905	-0.22297378	1.413375	0.0068134298	-0.30502123	1.027029	-0.21312068	-0.29618022	1.0227562	0.25659218	-0.20403884	0.78824366	-0.26501605	-0.12601802	0.8068823	0.2649628
185	0.736	0.13840796	0.015084723	-0.021723128	-0.60357452	0.060103596	0.069374895	-0.006069054	0.047481791	-0.074922495	-0.65833687	0.20058781	0.10908063	0.0060761807	0.067664805	0.022022339	-0.61096355	0.20103318	0.023385861	-0.082557173	0.01305475	-0.036415628	-0.70516728	0.23829579	0.049048908	0.031098409	0.45774454	-0.12241264	-0.26973109	0.4220598	0.18069728	0.024058049	0.45992175	0.0028384636	-0.25758829	0.39603665	0.049001962	-0.17574074	0.8273218	-0.17217378	-0.22566093	0.81214169	0.19911374	-0.11451583	0.91616144	-0.10333701	-0.12089527	0.89948928	0.13661466	-0.28778763	0.95661114	0.0079264126	-0.13997044	1.3570009	-0.15755554	-0.16255236	1.3687707	0.17383723	-0.21625794	1.4139693	0.0067994836	-0.29778854	1.0271931	-0.21379274	-0.29050836	1.0235401	0.25656725	-0.19568884	0.78864916	-0.26506118	-0.12108253	0.80699163	0.2648536
186	0.74	0.13841875	0.015034291	-0.021658175	-0.59825347	0.062280115	0.070092491	-0.0057934648	0.047318429	-0.074944473	-0.64812212	0.20525578	0.10975288	0.0062454079	0.067544661	0.022057096	-0.60060053	0.2044263	0.024339152	-0.082489887	0.013081732	-0.036471834	-0.69412041	0.2443989	0.049960358	0.035367598	0.45718651	-0.12221338	-0.25842405	0.42172851	0.18115242	0.027596288	0.45924344	0.0028508275	-0.24516258	0.39531495	0.049424051	-0.16923244	0.82786109	-0.17248601	-0.2194678	0.81221846	0.19863237	-0.10819697	0.91666817	-0.10347843	-0.11515952	0.89993885	0.13636863	-0.28167253	0.95745844	0.0074625205	-0.13310565	1.3574154	-0.15756319	-0.15605778	1.369226	0.17381099	-0.20954018	1.4146714	0.0067876377	-0.29061513	1.0273984	-0.2143495	-0.28486424	1.024359	0.25660194	-0.18729821	0.78911933	-0.26505853	-0.11614095	0.80716282	0.26475915
187	0.744	0.13840485	0.014996051	-0.021594073	-0.59221469	0.064631851	0.070935345	-0.0055602597	0.047171822	-0.074961307	-0.63773854	0.20966203	0.11033387	0.0063569618	0.067450049	0.02207637	-0.58994393	0.20783277	0.025162081	-0.082410131	0.013104807	-0.036520876	-0.68285443	0.25042061	0.050873804	0.039236272	0.45680486	-0.12210688	-0.24701108	0.42158215	0.18150621	0.030622202	0.45863077	0.0027795938	-0.23290406	0.39494801	0.049658589	-0.16277814	0.82850264	-0.17279764	-0.21348086	0.8124977	0.19817524	-0.1020575	0.91718993	-0.10358242	-0.10953417	0.90050838	0.13622177	-0.27567941	0.95837933	0.0069514071	-0.12626338	1.3579051	-0.15755846	-0.1496101	1.3697586	0.1738193	-0.20281434	1.4154638	0.0067419841	-0.28344176	1.0276606	-0.21478126	-0.27927536	1.0252268	0.25669166	-0.17887486	0.78966466	-0.26500228	-0.11120894	0.8073993	0.26467564
188	0.748	0.13836958	0.014969924	-0.021532094	-0.5853247	0.067199086	0.071943187	-0.0053822271	0.047055382	-0.074959461	-0.62717976	0.21384778	0.11085109	0.006419771	0.067377168	0.022093105	-0.57905831	0.2112275	0.025730322	-0.082312414	0.013125842	-0.036552087	-0.67136451	0.25629995	0.051778569	0.042607729	0.45668336	-0.12227409	-0.23548848	0.42160639	0.18174994	0.033269874	0.45809315	0.0026780175	-0.22075268	0.39491733	0.049705922	-0.15643293	0.82925406	-0.17308882	-0.20769643	0.8129557	0.19775058	-0.096064481	0.91773836	-0.10363985	-0.10400528	0.90119186	0.13616281	-0.26979039	0.95936662	0.0064174138	-0.11942535	1.3584724	-0.15752928	-0.14321892	1.3703754	0.17385863	-0.19609294	1.4163316	0.0066673261	-0.27625414	1.02799	-0.2151771	-0.27376746	1.0261575	0.25683531	-0.17042126	0.79029642	-0.26488938	-0.10631525	0.80769665	0.26459922
189	0.752	0.13831764	0.01495242	-0.021475667	-0.57742974	0.070000464	0.073133104	-0.0052594956	0.046970989	-0.074943387	-0.61642653	0.21786363	0.11132337	0.0064491006	0.067320297	0.02211196	-0.56799498	0.2146591	0.026017958	-0.082206435	0.01314332	-0.036564423	-0.65960755	0.26187203	0.052605259	0.045628918	0.45676152	-0.12268268	-0.22385166	0.42178929	0.18187717	0.035720649	0.45764753	0.002612488	-0.2086784	0.39520235	0.049613412	-0.1502569	0.83011229	-0.17332929	-0.20210955	0.81356408	0.19736828	-0.090135114	0.91833708	-0.10363384	-0.098560916	0.90198299	0.13617612	-0.26398171	0.96042963	0.0058824836	-0.11258037	1.3591151	-0.1574609	-0.13689827	1.3710833	0.17391781	-0.18939432	1.4172665	0.0065815684	-0.26907553	1.0283915	-0.21565091	-0.26831469	1.0271634	0.25702195	-0.16193915	0.79102468	-0.26472066	-0.10150499	0.80804539	0.26452643
190	0.756	0.13825417	0.014938715	-0.021425062	-0.56846381	0.073028378	0.074493345	-0.005186746	0.046908664	-0.074930748	-0.60545161	0.22175388	0.11173662	0.0064562431	0.067273155	0.022130684	-0.55684494	0.21821566	0.026156519	-0.082125633	0.013152409	-0.036570334	-0.64763509	0.26699415	0.05329348	0.048565404	0.45682145	-0.1230444	-0.21209547	0.42212028	0.18188203	0.038051122	0.45728585	0.0025932275	-0.1967061	0.39578227	0.049466695	-0.14427859	0.83107035	-0.17349607	-0.19671306	0.81430161	0.19702977	-0.084216528	0.91901052	-0.10356305	-0.09319167	0.90287246	0.13624755	-0.25822682	0.9615833	0.0053574808	-0.10573141	1.359833	-0.15735088	-0.13065194	1.3718906	0.17398557	-0.18273679	1.418269	0.0065040648	-0.26192884	1.0288718	-0.21623986	-0.26282718	1.0282584	0.25722903	-0.15344055	0.79185698	-0.26450029	-0.096825153	0.80843921	0.26445369
191	0.76	0.13818544	0.01492608	-0.021380724	-0.55848976	0.076252739	0.075990044	-0.0051531859	0.046855349	-0.074935965	-0.59423341	0.22555794	0.11206217	0.0064499674	0.06723169	0.022144848	-0.54567348	0.22193491	0.026286568	-0.08210332	0.013148833	-0.036587297	-0.63563059	0.27161897	0.053816128	0.05155479	0.45668542	-0.12311041	-0.20021849	0.42259213	0.18176128	0.040274758	0.45698472	0.0025997	-0.18491783	0.39664168	0.049388612	-0.13846972	0.83212352	-0.17360066	-0.1914773	0.81515008	0.19672487	-0.078309279	0.9197768	-0.10343672	-0.087887424	0.90385079	0.13636714	-0.25249969	0.96283629	0.0048510977	-0.098892332	1.3606357	-0.15721114	-0.12448572	1.3728066	0.17405885	-0.17613141	1.419341	0.0064444877	-0.25482126	1.0294422	-0.21690418	-0.25723486	1.0294573	0.2574388	-0.14494475	0.79279703	-0.26423215	-0.092305934	0.80888005	0.2643776
192	0.764	0.13811883	0.014914698	-0.021345529	-0.54764043	0.079609763	0.077597379	-0.0051351952	0.046807184	-0.074957134	-0.58276796	0.22931141	0.11228639	0.0064393977	0.067195683	0.022151782	-0.53443122	0.22574941	0.026413208	-0.0821457	0.013135163	-0.03662528	-0.62374397	0.27573721	0.054122972	0.054517599	0.45636631	-0.12291851	-0.188233	0.4232079	0.18152212	0.042420848	0.45672782	0.002621721	-0.17339369	0.39776222	0.049481948	-0.1327824	0.83326599	-0.17368918	-0.18633728	0.81608847	0.1964355	-0.072431159	0.92064278	-0.10326618	-0.082633519	0.90491443	0.13652487	-0.24677943	0.96418496	0.0043777725	-0.092067409	1.3615353	-0.15705031	-0.11839702	1.3738363	0.17414304	-0.16957907	1.4204797	0.0063996286	-0.24774699	1.0301155	-0.2175898	-0.25157332	1.0307664	0.25765305	-0.13646072	0.79384305	-0.26391285	-0.087957052	0.80937471	0.26429568
193	0.768	0.13806065	0.014905718	-0.02132276	-0.53603634	0.083005942	0.079320776	-0.0051057364	0.046767623	-0.074980014	-0.57105839	0.23302778	0.1124147	0.0064343017	0.067166851	0.022151712	-0.5230044	0.22950417	0.026458245	-0.082233602	0.013121515	-0.03668417	-0.61195963	0.2793352	0.054141364	0.05728976	0.45598245	-0.12267516	-0.17617362	0.42398719	0.18119023	0.044532338	0.4565099	0.0026572752	-0.16207978	0.39910789	0.049700239	-0.12723226	0.83448543	-0.17381007	-0.18122065	0.81709916	0.19614835	-0.066583826	0.92160747	-0.10306058	-0.077412476	0.90606567	0.13670661	-0.24106454	0.96561396	0.0039579952	-0.085243436	1.362534	-0.15686716	-0.11235692	1.374974	0.17424204	-0.16307973	1.4216853	0.0063769452	-0.24068807	1.0309056	-0.21824849	-0.24595383	1.0321777	0.25789229	-0.12797912	0.79499106	-0.26353105	-0.083765541	0.80993314	0.26420847
